<?xml version="1.0" encoding="iso-8859-1"?>
<!-- Generator: Adobe Illustrator 19.0.0, SVG Export Plug-In . SVG Version: 6.00 Build 0)  -->
<svg version="1.1" id="Layer_1" xmlns="http://www.w3.org/2000/svg" xmlns:xlink="http://www.w3.org/1999/xlink" x="0px" y="0px"
	 viewBox="0 0 356.675 356.675" style="enable-background:new 0 0 356.675 356.675;" xml:space="preserve">
<g>
	<title>student-loan-debt-money-budget-school-graduation</title>
	<rect x="22.295" y="222.923" style="fill:#9CE7F7;" width="16.719" height="11.146"/>
	<path style="fill:#9CE7F7;" d="M122.609,256.361h222.918V133.755H122.609V256.361z M135.371,168.809
		c1.052-1.043,2.475-1.625,3.957-1.616c9.234,0,16.719-7.485,16.719-16.719c0-3.078,2.495-5.573,5.573-5.573h144.897
		c3.078,0,5.573,2.495,5.573,5.573c0,9.234,7.485,16.719,16.719,16.719c3.078,0,5.573,2.495,5.573,5.573v44.584
		c0,3.078-2.495,5.573-5.573,5.573c-9.234,0-16.719,7.485-16.719,16.719c0,3.078-2.495,5.573-5.573,5.573H161.619
		c-3.078,0-5.573-2.495-5.573-5.573c0-9.234-7.485-16.719-16.719-16.719c-3.078,0-5.573-2.495-5.573-5.573v-44.584
		C133.746,171.285,134.328,169.861,135.371,168.809z"/>
	<path style="fill:#9CE7F7;" d="M166.635,234.068h134.866c2.233-10.947,10.788-19.502,21.735-21.735v-34.552
		c-11.022-2.093-19.642-10.713-21.735-21.735H166.635c-2.233,10.947-10.788,19.502-21.735,21.735v34.552
		C155.847,214.566,164.403,223.121,166.635,234.068z M234.068,167.193c15.389,0,27.865,12.476,27.865,27.865
		s-12.476,27.865-27.865,27.865s-27.865-12.476-27.865-27.865S218.679,167.193,234.068,167.193z"/>
	<circle style="fill:#9CE7F7;" cx="234.068" cy="195.059" r="16.719"/>
	<rect x="22.295" y="267.507" style="fill:#9CE7F7;" width="16.719" height="11.146"/>
	<rect x="50.16" y="267.507" style="fill:#9CE7F7;" width="16.719" height="11.146"/>
	<rect x="50.16" y="222.923" style="fill:#9CE7F7;" width="16.719" height="11.146"/>
	<rect x="72.452" y="289.799" style="fill:#9CE7F7;" width="11.146" height="11.146"/>
	<rect x="44.587" y="289.799" style="fill:#9CE7F7;" width="16.719" height="11.146"/>
	<rect x="72.452" y="245.214" style="fill:#9CE7F7;" width="11.146" height="11.146"/>
	<rect x="16.722" y="245.214" style="fill:#9CE7F7;" width="11.146" height="11.146"/>
	<rect x="33.441" y="200.632" style="fill:#9CE7F7;" width="11.146" height="11.146"/>
	<rect x="55.733" y="200.632" style="fill:#9CE7F7;" width="22.292" height="11.146"/>
	<rect x="122.609" y="267.507" style="fill:#9CE7F7;" width="222.918" height="11.146"/>
	<polygon style="fill:#9CE7F7;" points="22.295,211.777 22.295,200.632 11.149,200.632 11.149,211.777 16.722,211.777 	"/>
	<rect x="16.722" y="289.799" style="fill:#9CE7F7;" width="16.719" height="11.146"/>
	<polygon style="fill:#F78628;" points="300.052,33.443 234.068,11.43 168.084,33.443 234.068,55.456 	"/>
	<circle style="fill:#9CE7F7;" cx="317.662" cy="83.599" r="5.573"/>
	<polygon style="fill:#9CE7F7;" points="78.025,222.923 78.025,234.068 89.171,234.068 89.171,222.923 83.598,222.923 	"/>
	<rect x="78.025" y="267.507" style="fill:#9CE7F7;" width="11.146" height="11.146"/>
	<rect x="122.609" y="289.799" style="fill:#9CE7F7;" width="222.918" height="11.146"/>
	<rect x="122.609" y="334.383" style="fill:#9CE7F7;" width="222.918" height="11.146"/>
	<rect x="122.609" y="312.091" style="fill:#9CE7F7;" width="222.918" height="11.146"/>
	<path style="fill:#F78628;" d="M235.851,66.601c-1.14,0.378-2.371,0.378-3.511,0l-42.856-14.267v70.275h89.167V52.334
		L235.851,66.601z M222.922,117.036h-11.146v-11.146h11.146V117.036z M245.214,117.036h-11.146v-11.146h11.146V117.036z
		 M267.506,117.036H256.36v-11.146h11.146V117.036z"/>
	<rect x="22.295" y="334.383" style="fill:#9CE7F7;" width="16.719" height="11.146"/>
	<rect x="39.014" y="245.214" style="fill:#9CE7F7;" width="22.292" height="11.146"/>
	<rect x="22.295" y="312.091" style="fill:#9CE7F7;" width="11.146" height="11.146"/>
	<rect x="50.16" y="334.383" style="fill:#9CE7F7;" width="16.719" height="11.146"/>
	<rect x="78.025" y="334.383" style="fill:#9CE7F7;" width="11.146" height="11.146"/>
	<rect x="66.879" y="312.091" style="fill:#9CE7F7;" width="22.292" height="11.146"/>
	<rect x="44.587" y="312.091" style="fill:#9CE7F7;" width="11.146" height="11.146"/>
	<path style="fill:#414A52;" d="M351.1,122.609h-61.303v5.573h-11.146v-5.573h-89.167v5.573h-11.146v-5.573h-61.303
		c-3.078,0-5.573,2.495-5.573,5.573v222.918c0,3.078,2.495,5.573,5.573,5.573h234.064c3.078,0,5.573-2.495,5.573-5.573V128.182
		C356.673,125.104,354.178,122.609,351.1,122.609z M122.609,133.755h222.918v122.605H122.609V133.755z M122.609,312.091h222.918
		v11.146H122.609V312.091z M122.609,289.799h222.918v11.146H122.609V289.799z M122.609,267.507h222.918v11.146H122.609V267.507z
		 M122.609,345.529v-11.146h222.918v11.146H122.609z"/>
	<path style="fill:#414A52;" d="M328.808,167.193c-9.234,0-16.719-7.485-16.719-16.719c0-3.078-2.495-5.573-5.573-5.573H161.619
		c-3.078,0-5.573,2.495-5.573,5.573c0,9.234-7.485,16.719-16.719,16.719c-3.078,0-5.573,2.495-5.573,5.573v44.584
		c0,3.078,2.495,5.573,5.573,5.573c9.234,0,16.719,7.485,16.719,16.719c0,3.078,2.495,5.573,5.573,5.573h144.897
		c3.078,0,5.573-2.495,5.573-5.573c0-9.234,7.485-16.719,16.719-16.719c3.078,0,5.573-2.495,5.573-5.573v-44.584
		C334.381,169.688,331.886,167.193,328.808,167.193z M323.235,212.335c-10.947,2.233-19.502,10.788-21.735,21.735H166.635
		c-2.233-10.947-10.788-19.502-21.735-21.735v-34.552c10.947-2.233,19.502-10.788,21.735-21.735h134.866
		c2.233,10.947,10.788,19.502,21.735,21.735L323.235,212.335L323.235,212.335z"/>
	<path style="fill:#414A52;" d="M234.068,167.193c-15.389,0-27.865,12.476-27.865,27.865s12.476,27.865,27.865,27.865
		s27.865-12.476,27.865-27.865S249.457,167.193,234.068,167.193z M234.068,211.777c-9.234,0-16.719-7.485-16.719-16.719
		s7.485-16.719,16.719-16.719s16.719,7.485,16.719,16.719S243.301,211.777,234.068,211.777z"/>
	<path style="fill:#414A52;" d="M94.744,211.777h-5.573v-16.719c0-3.078-2.495-5.573-5.573-5.573H5.577
		c-3.078,0-5.573,2.495-5.573,5.573v22.292c0,3.078,2.495,5.573,5.573,5.573h5.573v11.146c-3.078,0-5.573,2.495-5.573,5.573v22.292
		c0,3.078,2.495,5.573,5.573,5.573v11.146c-3.078,0-5.573,2.495-5.573,5.573v22.292c0,3.078,2.495,5.573,5.573,5.573v39.011
		c0,3.078,2.495,5.573,5.573,5.573h78.021c3.078,0,5.573-2.495,5.573-5.573v-44.584c0-3.078-2.495-5.573-5.573-5.573v-11.146
		c3.078,0,5.573-2.495,5.573-5.573v-22.292c0-3.078-2.495-5.573-5.573-5.573v-11.146c3.078,0,5.573-2.495,5.573-5.573v-22.292
		C100.317,214.272,97.822,211.777,94.744,211.777z M89.171,278.653H78.025v-11.146h11.146V278.653z M89.171,323.237H66.879v-11.146
		h22.292V323.237z M16.722,289.799h16.719v11.146H16.722V289.799z M16.722,245.214h11.146v11.146H16.722V245.214z M33.441,211.777
		v-11.146h11.146v11.146H33.441z M66.879,222.923v11.146H50.16v-11.146H66.879z M66.879,267.507v11.146H50.16v-11.146H66.879z
		 M55.733,312.091v11.146H44.587v-11.146H55.733z M66.879,334.383v11.146H50.16v-11.146H66.879z M44.587,300.945v-11.146h16.719
		v11.146H44.587z M39.014,256.361v-11.146h22.292v11.146H39.014z M78.025,222.923h11.146v11.146H78.025V222.923z M78.025,211.777
		H55.733v-11.146h22.292V211.777z M11.149,200.632h11.146v11.146H11.149V200.632z M22.295,222.923h16.719v11.146H22.295V222.923z
		 M22.295,267.507h16.719v11.146H22.295V267.507z M33.441,312.091v11.146H22.295v-11.146H33.441z M22.295,334.383h16.719v11.146
		H22.295V334.383z M89.171,345.529H78.025v-11.146h11.146V345.529z M83.598,300.945H72.452v-11.146h11.146V300.945z M83.598,256.361
		H72.452v-11.146h11.146V256.361z"/>
	<path style="fill:#414A52;" d="M189.484,128.182V52.334l42.8,14.267c1.14,0.378,2.371,0.378,3.511,0l42.856-14.267v75.848h11.146
		V48.601l22.292-7.412v26.75c-8.705,3.078-13.268,12.63-10.19,21.336s12.63,13.268,21.336,10.19s13.268-12.63,10.19-21.336
		c-1.683-4.761-5.429-8.506-10.19-10.19V33.443c0.006-2.396-1.52-4.528-3.79-5.294L235.851,0.283c-1.14-0.378-2.371-0.378-3.511,0
		l-83.594,27.865c-2.924,0.961-4.515,4.11-3.554,7.034c0.553,1.682,1.872,3.002,3.554,3.555l29.592,9.864v79.582L189.484,128.182
		L189.484,128.182z M317.662,89.171c-3.078,0-5.573-2.495-5.573-5.573c0-3.078,2.495-5.573,5.573-5.573s5.573,2.495,5.573,5.573
		C323.235,86.676,320.74,89.171,317.662,89.171z M234.068,11.43l65.984,22.013l-65.984,22.013l-65.984-22.013L234.068,11.43z"/>
	<polygon style="fill:#414A52;" points="22.295,156.048 33.441,156.048 33.441,144.901 44.587,144.901 44.587,133.755 
		33.441,133.755 33.441,122.609 22.295,122.609 22.295,133.755 11.149,133.755 11.149,144.901 22.295,144.901 	"/>
	<polygon style="fill:#414A52;" points="55.733,117.036 66.879,117.036 66.879,105.89 78.025,105.89 78.025,94.744 66.879,94.744 
		66.879,83.599 55.733,83.599 55.733,94.744 44.587,94.744 44.587,105.89 55.733,105.89 	"/>
	<rect x="256.36" y="105.89" style="fill:#414A52;" width="11.146" height="11.146"/>
	<rect x="234.068" y="105.89" style="fill:#414A52;" width="11.146" height="11.146"/>
	<rect x="211.776" y="105.89" style="fill:#414A52;" width="11.146" height="11.146"/>
</g>
<g>
</g>
<g>
</g>
<g>
</g>
<g>
</g>
<g>
</g>
<g>
</g>
<g>
</g>
<g>
</g>
<g>
</g>
<g>
</g>
<g>
</g>
<g>
</g>
<g>
</g>
<g>
</g>
<g>
</g>
</svg>
