<?xml version="1.0" encoding="iso-8859-1"?>
<!-- Generator: Adobe Illustrator 19.0.0, SVG Export Plug-In . SVG Version: 6.00 Build 0)  -->
<svg version="1.1" id="Layer_1" xmlns="http://www.w3.org/2000/svg" xmlns:xlink="http://www.w3.org/1999/xlink" x="0px" y="0px"
	 viewBox="0 0 512 512" style="enable-background:new 0 0 512 512;" xml:space="preserve">
<path style="fill:#FF5023;" d="M215.874,180.534c-74.251,0-135.163,57.067-141.296,129.731c0,45.304,0,122.001,0,122.001h283.108
	c0,0-0.023-71.38-0.023-108.78c0.002-0.38,0.023-0.756,0.023-1.139C357.687,244.025,294.195,180.534,215.874,180.534z"/>
<path style="fill:#802812;" d="M215.874,180.534c0,91.505-0.57,251.732-0.57,251.732h142.382c0,0-0.023-71.38-0.023-108.78
	c0.002-0.38,0.023-0.756,0.023-1.139C357.687,244.025,294.195,180.534,215.874,180.534z"/>
<path style="fill:#E5F4FC;" d="M215.305,239.202c-65.947,0-119.601-53.653-119.601-119.601C95.704,53.654,149.358,0,215.305,0
	c65.948,0,119.601,53.654,119.601,119.601C334.906,185.549,281.253,239.202,215.305,239.202z"/>
<path style="fill:#BFE4F8;" d="M215.305,0c65.948,0,119.601,53.654,119.601,119.601c0,65.948-53.653,119.601-119.601,119.601"/>
<path style="fill:#3C5D76;" d="M124.18,131.554c66.383,0,113.53-40.882,113.999-41.293l13.871-12.228l11.094,14.793
	c7.571,10.033,33.903,38.728,54.675,38.728h16.525c0.358-3.751,0.56-7.546,0.56-11.391c0-65.947-53.653-119.601-119.601-119.601
	c-65.947,0-119.601,53.654-119.601,119.601c0,3.844,0.2,7.64,0.557,11.391H124.18z"/>
<path style="fill:#1E2E3B;" d="M215.305,0.563v105.382c14.391-8.329,22.679-15.512,22.875-15.684l13.871-12.228l11.094,14.793
	c7.571,10.033,33.903,38.728,54.675,38.728h16.525c0.358-3.751,0.56-7.546,0.56-11.391C334.906,54.217,281.253,0.563,215.305,0.563z
	"/>
<circle style="fill:#FFFFFF;" cx="340.601" cy="415.175" r="79.734"/>
<path style="fill:#BFE4F8;" d="M340.601,512c-53.387,0-96.82-43.433-96.82-96.82s43.433-96.82,96.82-96.82s96.82,43.433,96.82,96.82
	S393.988,512,340.601,512z M340.601,352.532c-34.544,0-62.648,28.104-62.648,62.648s28.104,62.648,62.648,62.648
	s62.648-28.104,62.648-62.648S375.146,352.532,340.601,352.532z"/>
<polygon style="fill:#3C5D76;" points="377.621,398.094 357.687,398.094 357.687,378.161 323.515,378.161 323.515,398.094 
	303.582,398.094 303.582,432.266 323.515,432.266 323.515,452.199 357.687,452.199 357.687,432.266 377.621,432.266 "/>
<polygon style="fill:#1E2E3B;" points="377.621,398.094 357.687,398.094 357.687,378.161 340.601,378.161 340.601,452.199 
	357.687,452.199 357.687,432.266 377.621,432.266 "/>
<path style="fill:#93C7EF;" d="M340.601,318.36v34.172c34.544,0,62.648,28.104,62.648,62.648s-28.104,62.648-62.648,62.648V512
	c53.387,0,96.82-43.433,96.82-96.82S393.988,318.36,340.601,318.36z"/>
<g>
</g>
<g>
</g>
<g>
</g>
<g>
</g>
<g>
</g>
<g>
</g>
<g>
</g>
<g>
</g>
<g>
</g>
<g>
</g>
<g>
</g>
<g>
</g>
<g>
</g>
<g>
</g>
<g>
</g>
</svg>
